<?xml version="1.0" encoding="UTF-8" standalone="no"?>
<!DOCTYPE svg PUBLIC "-//W3C//DTD SVG 1.1//EN" "http://www.w3.org/Graphics/SVG/1.1/DTD/svg11.dtd">
<!-- Created with Vectornator (http://vectornator.io/) -->
<svg height="100%" stroke-miterlimit="10" style="fill-rule:nonzero;clip-rule:evenodd;stroke-linecap:round;stroke-linejoin:round;" version="1.1" viewBox="0 0 1600 1600" width="100%" xml:space="preserve" xmlns="http://www.w3.org/2000/svg" xmlns:vectornator="http://vectornator.io" xmlns:xlink="http://www.w3.org/1999/xlink">
<defs/>
<g id="Layer-1" vectornator:layerName="Layer 1">
<g opacity="1" vectornator:layerName="Group 1">
<path d="M1356.27 837.14C1342.54 844.006 1332.24 850.872 1325.37 857.738C1318.5 864.604 1312.33 874.217 1306.83 886.576C1301.34 898.935 1298.59 976.521 1298.59 1119.34C1298.59 1262.15 1300.65 1335.62 1304.77 1339.74C1308.89 1343.86 1318.5 1343.86 1333.61 1339.74C1348.72 1335.62 1369.31 1326.69 1395.41 1312.96C1421.5 1299.23 1440.72 1282.06 1453.08 1261.46C1465.44 1240.87 1471.62 1173.58 1471.62 1059.6C1471.62 945.624 1466.13 879.71 1455.14 861.858C1444.15 844.006 1428.36 833.707 1407.76 830.961C1387.17 828.214 1370 830.274 1356.27 837.14ZM1121.45 958.67C1102.22 972.402 1089.86 985.447 1084.37 997.806C1078.88 1010.17 1076.13 1087.07 1076.13 1228.51C1076.13 1369.95 1077.51 1442.73 1080.25 1446.85C1083 1450.97 1087.12 1453.03 1092.61 1453.03C1098.1 1453.03 1119.39 1444.1 1156.47 1426.25C1193.54 1408.4 1217.57 1389.86 1228.56 1370.63C1239.55 1351.41 1245.04 1282.06 1245.04 1162.59C1245.04 1043.12 1237.49 975.835 1222.38 960.729C1207.27 945.624 1191.48 938.071 1175 938.071C1158.53 938.071 1140.67 944.937 1121.45 958.67ZM571.476 1088.44C570.103 1141.99 572.849 1177.01 579.715 1193.49C586.582 1209.97 595.507 1222.33 606.493 1230.57C617.479 1238.81 635.331 1246.36 660.049 1253.22C684.766 1260.09 707.424 1269.02 728.023 1280C748.621 1290.99 763.726 1296.48 773.339 1296.48C782.951 1296.48 790.504 1293.73 795.997 1288.24C801.49 1282.75 804.236 1254.6 804.236 1203.79C804.236 1152.98 800.803 1121.4 793.937 1109.04C787.071 1096.68 774.712 1085.01 756.86 1074.02C739.008 1063.03 707.424 1049.3 662.108 1032.82C616.792 1016.34 591.734 1003.32 583.835 1008.11C575.936 1012.89 572.849 1034.88 571.476 1088.44ZM923.706 1039C909.974 1043.12 896.241 1052.05 882.509 1065.78C868.777 1079.51 860.538 1091.18 857.791 1100.8C855.045 1110.41 854.358 1147.49 855.732 1212.03C857.105 1276.57 854.358 1314.33 847.492 1325.32C840.626 1336.3 831.014 1344.54 818.655 1350.04C806.296 1355.53 794.624 1358.28 783.638 1358.28C772.652 1358.28 751.367 1350.72 719.783 1335.62C688.199 1320.51 664.855 1312.96 649.749 1312.96C634.644 1312.96 620.912 1316.39 608.553 1323.26C596.194 1330.12 587.268 1338.36 581.775 1347.98C576.282 1357.59 572.849 1371.32 571.476 1389.17C570.103 1407.02 572.163 1424.88 577.656 1442.73C583.148 1460.58 590.015 1473.63 598.254 1481.86C606.493 1490.1 636.704 1505.9 688.886 1529.24C741.068 1552.58 776.772 1564.26 795.997 1564.26C815.222 1564.26 849.552 1553.96 898.988 1533.36C948.424 1512.76 979.321 1496.97 991.68 1485.98C1004.04 1475 1012.28 1465.39 1016.4 1457.15C1020.52 1448.91 1022.58 1385.05 1022.58 1265.58C1022.58 1146.11 1017.08 1078.83 1006.1 1063.72C995.113 1048.62 982.067 1039.69 966.962 1036.94C951.857 1034.2 937.438 1034.88 923.706 1039Z" fill="#646464" fill-rule="nonzero" opacity="1" stroke="none" vectornator:layerName="Curve 5"/>
<path d="M762.598 40.4509C743.373 45.9437 706.983 61.7357 653.428 87.8268C599.872 113.918 571.035 129.71 566.915 135.203C562.796 140.696 560.736 146.875 560.736 153.741C560.736 160.607 564.169 167.473 571.035 174.339C577.901 181.205 613.604 197.684 678.146 223.775C742.687 249.866 788.003 255.359 814.094 240.254C840.185 225.148 866.963 217.596 894.427 217.596C921.891 217.596 950.042 211.416 978.88 199.057C1007.72 186.698 1024.88 177.772 1030.38 172.279C1035.87 166.787 1038.61 159.921 1038.61 151.681C1038.61 143.442 1035.87 136.576 1030.38 131.083C1024.88 125.59 994.672 109.798 939.743 83.7071C884.814 57.616 846.364 42.5107 824.393 38.391C802.422 34.2714 781.823 34.958 762.598 40.4509ZM284.72 238.194C210.566 271.151 168.683 292.436 159.07 302.048C149.458 311.661 142.592 321.96 138.472 332.946C134.353 343.931 132.293 407.099 132.293 522.449C132.293 637.799 138.472 704.4 150.831 722.252C163.19 740.104 184.475 755.896 214.686 769.628C244.896 783.36 263.435 789.54 270.301 788.166C277.167 786.793 283.346 782.673 288.839 775.807C294.332 768.941 297.078 714.013 297.078 611.022C297.078 508.03 302.571 448.982 313.557 433.877C324.543 418.772 337.588 408.472 352.694 402.98C367.799 397.487 387.024 395.427 410.369 396.8C433.713 398.173 457.058 403.666 480.403 413.279C503.747 422.891 520.912 433.19 531.898 444.176C542.884 455.162 553.183 460.655 562.796 460.655C572.408 460.655 597.126 451.729 636.949 433.877C676.772 416.025 701.49 399.547 711.103 384.441C720.715 369.336 724.148 354.917 721.402 341.185C718.655 327.453 713.163 317.154 704.923 310.288C696.684 303.421 656.174 282.823 583.394 248.493C510.613 214.163 461.178 195.624 435.087 192.878C408.995 190.131 358.873 205.237 284.72 238.194Z" fill="#646464" fill-rule="nonzero" opacity="1" stroke="none" vectornator:layerName="Curve 4"/>
<path d="M396.158 451.544C382.426 457.036 371.441 465.962 363.201 478.321C354.962 490.68 350.156 544.922 348.783 641.047C347.409 737.172 348.096 791.414 350.842 803.773C353.589 816.132 359.082 827.804 367.321 838.79C375.56 849.776 389.292 860.762 408.517 871.747C427.742 882.733 444.221 889.599 457.953 892.346C471.685 895.092 483.358 893.719 492.97 888.226C502.583 882.733 509.449 873.807 513.568 861.448C517.688 849.089 519.748 788.668 519.748 680.184C519.748 571.7 519.061 513.338 517.688 505.099C516.315 496.86 511.508 487.247 503.269 476.261C495.03 465.276 484.044 457.036 470.312 451.544C456.58 446.051 444.221 443.304 433.235 443.304C422.25 443.304 409.891 446.051 396.158 451.544ZM616.559 758.457C601.454 765.323 590.468 774.249 583.602 785.235C576.736 796.221 573.303 816.132 573.303 844.97C573.303 873.807 579.483 896.465 591.842 912.944C604.2 929.422 646.084 952.767 717.491 982.978C788.898 1013.19 844.513 1021.43 884.336 1007.7C924.16 993.963 951.624 981.605 966.729 970.619C981.835 959.633 990.76 947.274 993.507 933.542C996.253 919.81 996.253 909.511 993.507 902.645C990.76 895.779 984.581 888.226 974.968 879.987C965.356 871.747 915.234 849.089 824.601 812.012C733.969 774.936 680.414 755.024 663.935 752.278C647.457 749.531 631.665 751.591 616.559 758.457ZM163.399 834.671C151.04 842.91 142.114 853.209 136.621 865.568C131.128 877.927 128.382 942.468 128.382 1059.19C128.382 1175.91 134.561 1244.58 146.92 1265.17C159.279 1285.77 180.564 1303.62 210.774 1318.73C240.985 1333.83 261.583 1342.07 272.569 1343.45C283.555 1344.82 290.421 1343.45 293.167 1339.33C295.914 1335.21 297.287 1261.74 297.287 1118.93C297.287 976.112 294.541 897.838 289.048 884.106C283.555 870.374 276.689 859.388 268.449 851.149C260.21 842.91 249.911 836.044 237.552 830.551C225.193 825.058 212.834 822.312 200.475 822.312C188.116 822.312 175.757 826.431 163.399 834.671ZM392.039 943.841C381.053 947.961 371.441 956.2 363.201 968.559C354.962 980.918 350.842 1047.52 350.842 1168.36C350.842 1289.2 352.902 1354.43 357.022 1364.04C361.141 1373.66 368.008 1383.27 377.62 1392.88C387.233 1402.49 408.517 1414.85 441.475 1429.96C474.432 1445.06 484.145 1446.98 493.932 1449.82C500.507 1451.72 508.733 1454.29 512.049 1453.24C515.365 1452.19 515.704 1444.65 515.704 1444.65L517.688 1236.34C519.061 1092.15 512.882 1009.76 499.15 989.157C485.417 968.559 473.058 955.513 462.073 950.021C451.087 944.528 439.415 941.095 427.056 939.721C414.697 938.348 403.025 939.721 392.039 943.841Z" fill="#4584b6" fill-rule="nonzero" opacity="1" stroke="none" vectornator:layerName="Curve 3"/>
<path d="M1059.34 235.581C996.174 267.165 947.411 278.231 929.573 278.837C911.735 279.444 882.197 278.151 857.479 285.017C832.761 291.883 814.91 300.122 803.924 309.735C792.938 319.347 784.699 331.02 779.206 344.752C773.713 358.484 770.967 370.156 770.967 379.769C770.967 389.381 773.027 399.68 777.146 410.666C781.266 421.652 797.744 441.563 797.744 441.563C807.357 451.176 823.027 465.034 854.611 476.02C886.195 487.006 921.334 487.566 950.171 484.82C979.009 482.073 1000.98 477.267 1016.09 470.401C1031.19 463.535 1045.61 454.609 1059.34 443.623C1073.07 432.637 1093.67 421.652 1121.14 410.666C1148.6 399.68 1174.01 394.187 1197.35 394.187C1220.69 394.187 1237.86 396.247 1248.85 400.367C1259.83 404.486 1270.13 412.039 1279.74 423.025C1289.36 434.011 1295.53 443.623 1298.28 451.862C1301.03 460.102 1302.4 514.344 1302.4 614.588C1302.4 714.833 1305.15 768.388 1310.64 775.254C1316.13 782.121 1322.31 786.24 1329.18 787.613C1336.04 788.987 1353.9 782.807 1382.73 769.075C1411.57 755.343 1429.42 745.044 1436.29 738.178C1443.16 731.312 1450.02 720.326 1456.89 705.221C1463.75 690.115 1466.5 625.574 1465.13 511.597C1463.75 397.62 1460.32 334.453 1454.83 322.094C1449.33 309.735 1436.29 296.689 1415.69 282.957C1395.09 269.225 1355.96 250 1298.28 225.282C1240.61 200.564 1202.16 188.205 1182.93 188.205C1163.71 188.205 1122.51 203.997 1059.34 235.581ZM862.185 349.371C882.262 317.714 949.664 318.751 961.743 358.397C973.822 398.043 945.724 423.691 907.779 421.524C869.835 419.358 842.108 381.027 862.185 349.371ZM1131.44 447.743C1113.58 453.236 1099.85 464.221 1090.24 480.7C1080.63 497.178 1075.82 558.973 1075.82 666.084C1075.82 773.195 1077.19 833.616 1079.94 847.348C1082.69 861.08 1088.18 871.38 1096.42 878.246C1104.66 885.112 1114.96 888.545 1127.32 888.545C1139.67 888.545 1153.41 885.112 1168.51 878.246C1183.62 871.38 1196.66 863.14 1207.65 853.528C1218.63 843.915 1227.56 831.556 1234.43 816.451C1241.29 801.346 1244.73 745.044 1244.73 647.546C1244.73 550.047 1240.61 493.745 1232.37 478.64C1224.13 463.535 1209.71 453.236 1189.11 447.743C1168.51 442.25 1149.29 442.25 1131.44 447.743ZM626.779 480.7C613.047 486.193 601.375 495.119 591.762 507.478C582.15 519.837 576.657 537.002 575.284 558.973C573.91 580.945 574.597 597.423 577.343 608.409C580.09 619.395 584.896 629.007 591.762 637.246C598.628 645.486 669.349 677.07 803.924 731.998C862.024 755.713 913.596 780.748 947.38 793.968C991.85 811.369 999.451 818.144 1011.97 812.331C1022.7 807.346 1018.83 786.24 1020.21 738.178C1021.58 690.115 1020.89 660.591 1018.15 649.605C1015.4 638.62 1009.91 627.634 1001.67 616.648C993.428 605.662 936.439 578.885 830.702 536.315C724.964 493.745 667.976 472.461 659.736 472.461C651.497 472.461 640.511 475.207 626.779 480.7Z" fill="#fdde57" fill-rule="nonzero" opacity="1" stroke="none" vectornator:layerName="Curve 2"/>
</g>
</g>
</svg>
