<?xml version="1.0" encoding="UTF-8" standalone="no"?>
<!DOCTYPE svg PUBLIC "-//W3C//DTD SVG 1.1//EN" "http://www.w3.org/Graphics/SVG/1.1/DTD/svg11.dtd">
<!-- Created with Vectornator (http://vectornator.io/) -->
<svg height="100%" stroke-miterlimit="10" style="fill-rule:nonzero;clip-rule:evenodd;stroke-linecap:round;stroke-linejoin:round;" version="1.1" viewBox="0 0 1547.46 509.005" width="100%" xml:space="preserve" xmlns="http://www.w3.org/2000/svg" xmlns:vectornator="http://vectornator.io" xmlns:xlink="http://www.w3.org/1999/xlink">
<defs/>
<clipPath id="ArtboardFrame">
<rect height="509.005" width="1547.46" x="0" y="0"/>
</clipPath>
<g clip-path="url(#ArtboardFrame)" id="Layer-1" vectornator:layerName="Layer 1">
<path d="M349.988 526.885C345.321 528.218 336.488 532.052 323.488 538.385C310.488 544.718 303.488 548.552 302.488 549.885C301.488 551.218 300.988 552.718 300.988 554.385C300.988 556.052 301.821 557.718 303.488 559.385C305.155 561.052 313.821 565.052 329.488 571.385C345.155 577.718 356.155 579.052 362.488 575.385C368.821 571.718 375.321 569.885 381.988 569.885C388.655 569.885 395.488 568.385 402.488 565.385C409.488 562.385 413.655 560.218 414.988 558.885C416.321 557.552 416.988 555.885 416.988 553.885C416.988 551.885 416.321 550.218 414.988 548.885C413.655 547.552 406.321 543.718 392.988 537.385C379.655 531.052 370.321 527.385 364.988 526.385C359.655 525.385 354.655 525.552 349.988 526.885ZM233.988 574.885C215.988 582.885 205.821 588.052 203.488 590.385C201.155 592.718 199.488 595.218 198.488 597.885C197.488 600.552 196.988 615.885 196.988 643.885C196.988 671.885 198.488 688.052 201.488 692.385C204.488 696.718 209.655 700.552 216.988 703.885C224.321 707.218 228.821 708.718 230.488 708.385C232.155 708.052 233.655 707.052 234.988 705.385C236.321 703.718 236.988 690.385 236.988 665.385C236.988 640.385 238.321 626.052 240.988 622.385C243.655 618.718 246.821 616.218 250.488 614.885C254.155 613.552 258.821 613.052 264.488 613.385C270.155 613.718 275.821 615.052 281.488 617.385C287.155 619.718 291.321 622.218 293.988 624.885C296.655 627.552 299.155 628.885 301.488 628.885C303.821 628.885 309.821 626.718 319.488 622.385C329.155 618.052 335.155 614.052 337.488 610.385C339.821 606.718 340.655 603.218 339.988 599.885C339.321 596.552 337.988 594.052 335.988 592.385C333.988 590.718 324.155 585.718 306.488 577.385C288.821 569.052 276.821 564.552 270.488 563.885C264.155 563.218 251.988 566.885 233.988 574.885ZM421.988 574.385C406.655 582.052 394.818 584.738 390.488 584.885C386.158 585.032 378.988 584.718 372.988 586.385C366.988 588.052 362.655 590.052 359.988 592.385C357.321 594.718 355.321 597.552 353.988 600.885C352.655 604.218 351.988 607.052 351.988 609.385C351.988 611.718 352.488 614.218 353.488 616.885C354.488 619.552 358.488 624.385 358.488 624.385C360.821 626.718 364.625 630.082 372.291 632.749C379.958 635.416 388.488 635.552 395.488 634.885C402.488 634.218 407.821 633.052 411.488 631.385C415.155 629.718 418.655 627.552 421.988 624.885C425.321 622.218 430.321 619.552 436.988 616.885C443.655 614.218 449.821 612.885 455.488 612.885C461.155 612.885 465.321 613.385 467.988 614.385C470.655 615.385 473.155 617.218 475.488 619.885C477.821 622.552 479.321 624.885 479.988 626.885C480.655 628.885 480.988 642.052 480.988 666.385C480.988 690.718 481.655 703.718 482.988 705.385C484.321 707.052 485.821 708.052 487.488 708.385C489.155 708.718 493.488 707.218 500.488 703.885C507.488 700.552 511.821 698.052 513.488 696.385C515.155 694.718 516.821 692.052 518.488 688.385C520.155 684.718 520.821 669.052 520.488 641.385C520.155 613.718 519.321 598.385 517.988 595.385C516.655 592.385 513.488 589.218 508.488 585.885C503.488 582.552 493.988 577.885 479.988 571.885C465.988 565.885 456.655 562.885 451.988 562.885C447.321 562.885 437.321 566.718 421.988 574.385ZM374.13 602.006C379.004 594.322 395.365 594.574 398.297 604.197C401.229 613.821 394.408 620.047 385.198 619.521C375.987 618.995 369.257 609.69 374.13 602.006ZM439.488 625.885C435.155 627.218 431.821 629.885 429.488 633.885C427.155 637.885 425.988 652.885 425.988 678.885C425.988 704.885 426.321 719.552 426.988 722.885C427.655 726.218 428.988 728.718 430.988 730.385C432.988 732.052 435.488 732.885 438.488 732.885C441.488 732.885 444.821 732.052 448.488 730.385C452.155 728.718 455.321 726.718 457.988 724.385C460.655 722.052 462.821 719.052 464.488 715.385C466.155 711.718 466.988 698.052 466.988 674.385C466.988 650.718 465.988 637.052 463.988 633.385C461.988 629.718 458.488 627.218 453.488 625.885C448.488 624.552 443.821 624.552 439.488 625.885ZM260.988 626.885C257.655 628.218 254.988 630.385 252.988 633.385C250.988 636.385 249.821 649.552 249.488 672.885C249.155 696.218 249.321 709.385 249.988 712.385C250.655 715.385 251.988 718.218 253.988 720.885C255.988 723.552 259.321 726.218 263.988 728.885C268.655 731.552 272.655 733.218 275.988 733.885C279.321 734.552 282.155 734.218 284.488 732.885C286.821 731.552 288.488 729.385 289.488 726.385C290.488 723.385 290.988 708.718 290.988 682.385C290.988 656.052 290.821 641.885 290.488 639.885C290.155 637.885 288.988 635.552 286.988 632.885C284.988 630.218 282.321 628.218 278.988 626.885C275.655 625.552 272.655 624.885 269.988 624.885C267.321 624.885 264.321 625.552 260.988 626.885ZM316.988 633.885C313.655 635.218 310.821 637.385 308.488 640.385C306.155 643.385 304.821 647.552 304.488 652.885C304.155 658.218 304.321 662.218 304.988 664.885C305.655 667.552 306.821 669.885 308.488 671.885C310.155 673.885 327.321 681.552 359.988 694.885C374.091 700.641 386.61 706.719 394.81 709.928C405.605 714.152 407.45 715.796 410.488 714.385C413.093 713.175 412.155 708.052 412.488 696.385C412.821 684.718 412.655 677.552 411.988 674.885C411.321 672.218 409.988 669.552 407.988 666.885C405.988 664.218 392.155 657.718 366.488 647.385C340.821 637.052 326.988 631.885 324.988 631.885C322.988 631.885 320.321 632.552 316.988 633.885ZM314.488 701.385C310.821 703.052 308.155 705.218 306.488 707.885C304.821 710.552 303.988 715.385 303.988 722.385C303.988 729.385 305.488 734.885 308.488 738.885C311.488 742.885 321.655 748.552 338.988 755.885C356.321 763.218 369.821 765.218 379.488 761.885C389.155 758.552 395.821 755.552 399.488 752.885C403.155 750.218 405.321 747.218 405.988 743.885C406.655 740.552 406.655 738.052 405.988 736.385C405.321 734.718 403.821 732.885 401.488 730.885C399.155 728.885 386.988 723.385 364.988 714.385C342.988 705.385 329.988 700.552 325.988 699.885C321.988 699.218 318.155 699.718 314.488 701.385ZM204.488 719.885C201.488 721.885 199.321 724.385 197.988 727.385C196.655 730.385 195.988 746.052 195.988 774.385C195.988 802.718 197.488 819.385 200.488 824.385C203.488 829.385 208.655 833.718 215.988 837.385C223.321 841.052 228.321 843.052 230.988 843.385C233.655 843.718 235.321 843.385 235.988 842.385C236.655 841.385 236.988 823.552 236.988 788.885C236.988 754.218 236.321 735.218 234.988 731.885C233.655 728.552 231.988 725.885 229.988 723.885C227.988 721.885 225.488 720.218 222.488 718.885C219.488 717.552 216.488 716.885 213.488 716.885C210.488 716.885 207.488 717.885 204.488 719.885ZM493.988 720.385C490.655 722.052 488.155 723.718 486.488 725.385C484.821 727.052 483.321 729.385 481.988 732.385C480.655 735.385 479.988 754.218 479.988 788.885C479.988 823.552 480.488 841.385 481.488 842.385C482.488 843.385 484.821 843.385 488.488 842.385C492.155 841.385 497.155 839.218 503.488 835.885C509.821 832.552 514.488 828.385 517.488 823.385C520.488 818.385 521.988 802.052 521.988 774.385C521.988 746.718 520.655 730.718 517.988 726.385C515.321 722.052 511.488 719.552 506.488 718.885C501.488 718.218 497.321 718.718 493.988 720.385ZM259.988 746.385C257.321 747.385 254.988 749.385 252.988 752.385C250.988 755.385 249.988 771.552 249.988 800.885C249.988 830.218 250.488 846.052 251.488 848.385C252.488 850.718 254.155 853.052 256.488 855.385C258.821 857.718 263.988 860.718 271.988 864.385C279.988 868.052 282.346 868.516 284.721 869.205C286.317 869.668 288.314 870.292 289.119 870.036C289.924 869.781 290.006 867.95 290.006 867.95L290.488 817.385C290.821 782.385 289.321 762.385 285.988 757.385C282.655 752.385 279.655 749.218 276.988 747.885C274.321 746.552 271.488 745.718 268.488 745.385C265.488 745.052 262.655 745.385 259.988 746.385ZM436.988 749.885C432.321 753.218 429.321 756.385 427.988 759.385C426.655 762.385 425.988 781.052 425.988 815.385C425.988 849.718 426.321 867.385 426.988 868.385C427.655 869.385 428.655 869.885 429.988 869.885C431.321 869.885 436.488 867.718 445.488 863.385C454.488 859.052 460.321 854.552 462.988 849.885C465.655 845.218 466.988 828.385 466.988 799.385C466.988 770.385 465.155 754.052 461.488 750.385C457.821 746.718 453.988 744.885 449.988 744.885C445.988 744.885 441.655 746.552 436.988 749.885ZM303.488 781.385C303.155 794.385 303.821 802.885 305.488 806.885C307.155 810.885 309.321 813.885 311.988 815.885C314.655 817.885 318.988 819.718 324.988 821.385C330.988 823.052 336.488 825.218 341.488 827.885C346.488 830.552 350.155 831.885 352.488 831.885C354.821 831.885 356.655 831.218 357.988 829.885C359.321 828.552 359.988 821.718 359.988 809.385C359.988 797.052 359.155 789.385 357.488 786.385C355.821 783.385 352.821 780.552 348.488 777.885C344.155 775.218 336.488 771.885 325.488 767.885C314.488 763.885 308.405 760.723 306.488 761.885C304.571 763.048 303.821 768.385 303.488 781.385ZM388.988 769.385C385.655 770.385 382.321 772.552 378.988 775.885C375.655 779.218 373.655 782.052 372.988 784.385C372.321 786.718 372.155 795.718 372.488 811.385C372.821 827.052 372.155 836.218 370.488 838.885C368.821 841.552 366.488 843.552 363.488 844.885C360.488 846.218 357.655 846.885 354.988 846.885C352.321 846.885 347.155 845.052 339.488 841.385C331.821 837.718 326.155 835.885 322.488 835.885C318.821 835.885 315.488 836.718 312.488 838.385C309.488 840.052 307.321 842.052 305.988 844.385C304.655 846.718 303.821 850.052 303.488 854.385C303.155 858.718 303.655 863.052 304.988 867.385C306.321 871.718 307.988 874.885 309.988 876.885C311.988 878.885 319.321 882.718 331.988 888.385C344.655 894.052 353.321 896.885 357.988 896.885C362.655 896.885 370.988 894.385 382.988 889.385C394.988 884.385 402.488 880.552 405.488 877.885C408.488 875.218 410.488 872.885 411.488 870.885C412.488 868.885 412.988 853.385 412.988 824.385C412.988 795.385 411.655 779.052 408.988 775.385C406.321 771.718 403.155 769.552 399.488 768.885C395.821 768.218 392.321 768.385 388.988 769.385Z" fill="#000000" fill-rule="nonzero" opacity="0" stroke="none" vectornator:layerName="Curve 1"/>
<g opacity="1" vectornator:layerName="Group 1">
<path d="M415.605 263.518C412.272 265.184 409.772 266.851 408.105 268.518C406.438 270.184 404.938 272.518 403.605 275.518C402.272 278.518 401.605 297.351 401.605 332.018C401.605 366.684 402.105 384.518 403.105 385.518C404.105 386.518 406.438 386.518 410.105 385.518C413.772 384.518 418.772 382.351 425.105 379.018C431.438 375.684 436.105 371.518 439.105 366.518C442.105 361.518 443.605 345.184 443.605 317.518C443.605 289.851 442.272 273.851 439.605 269.518C436.938 265.184 433.105 262.684 428.105 262.018C423.105 261.351 418.938 261.851 415.605 263.518ZM358.605 293.018C353.938 296.351 350.938 299.518 349.605 302.518C348.272 305.518 347.605 324.184 347.605 358.518C347.605 392.851 347.938 410.518 348.605 411.518C349.272 412.518 350.272 413.018 351.605 413.018C352.938 413.018 358.105 410.851 367.105 406.518C376.105 402.184 381.938 397.684 384.605 393.018C387.272 388.351 388.605 371.518 388.605 342.518C388.605 313.518 386.772 297.184 383.105 293.518C379.438 289.851 375.605 288.018 371.605 288.018C367.605 288.018 363.272 289.684 358.605 293.018ZM225.105 324.518C224.772 337.518 225.438 346.018 227.105 350.018C228.772 354.018 230.938 357.018 233.605 359.018C236.272 361.018 240.605 362.851 246.605 364.518C252.605 366.184 258.105 368.351 263.105 371.018C268.105 373.684 271.772 375.018 274.105 375.018C276.438 375.018 278.272 374.351 279.605 373.018C280.938 371.684 281.605 364.851 281.605 352.518C281.605 340.184 280.772 332.518 279.105 329.518C277.438 326.518 274.438 323.684 270.105 321.018C265.772 318.351 258.105 315.018 247.105 311.018C236.105 307.018 230.022 303.855 228.105 305.018C226.188 306.18 225.438 311.518 225.105 324.518ZM310.605 312.518C307.272 313.518 303.938 315.684 300.605 319.018C297.272 322.351 295.272 325.184 294.605 327.518C293.938 329.851 293.772 338.851 294.105 354.518C294.438 370.184 293.772 379.351 292.105 382.018C290.438 384.684 288.105 386.684 285.105 388.018C282.105 389.351 279.272 390.018 276.605 390.018C273.938 390.018 268.772 388.184 261.105 384.518C253.438 380.851 247.772 379.018 244.105 379.018C240.438 379.018 237.105 379.851 234.105 381.518C231.105 383.184 228.938 385.184 227.605 387.518C226.272 389.851 225.438 393.184 225.105 397.518C224.772 401.851 225.272 406.184 226.605 410.518C227.938 414.851 229.605 418.018 231.605 420.018C233.605 422.018 240.938 425.851 253.605 431.518C266.272 437.184 274.938 440.018 279.605 440.018C284.272 440.018 292.605 437.518 304.605 432.518C316.605 427.518 324.105 423.684 327.105 421.018C330.105 418.351 332.105 416.018 333.105 414.018C334.105 412.018 334.605 396.518 334.605 367.518C334.605 338.518 333.272 322.184 330.605 318.518C327.938 314.851 324.772 312.684 321.105 312.018C317.438 311.351 313.938 311.518 310.605 312.518Z" fill="#646464" fill-rule="nonzero" opacity="1" stroke="none" vectornator:layerName="Curve 5"/>
<path d="M271.498 70.1298C266.831 71.4632 257.998 75.2965 244.998 81.6298C231.998 87.9632 224.998 91.7965 223.998 93.1298C222.998 94.4632 222.498 95.9632 222.498 97.6298C222.498 99.2965 223.331 100.963 224.998 102.63C226.665 104.297 235.331 108.297 250.998 114.63C266.665 120.963 277.665 122.297 283.998 118.63C290.331 114.963 296.831 113.13 303.498 113.13C310.165 113.13 316.998 111.63 323.998 108.63C330.998 105.63 335.165 103.463 336.498 102.13C337.831 100.797 338.498 99.1298 338.498 97.1298C338.498 95.1298 337.831 93.4632 336.498 92.1298C335.165 90.7965 327.831 86.9632 314.498 80.6298C301.165 74.2965 291.831 70.6298 286.498 69.6298C281.165 68.6298 276.165 68.7965 271.498 70.1298ZM155.498 118.13C137.498 126.13 127.331 131.297 124.998 133.63C122.665 135.963 120.998 138.463 119.998 141.13C118.998 143.797 118.498 159.13 118.498 187.13C118.498 215.13 119.998 231.297 122.998 235.63C125.998 239.963 131.165 243.797 138.498 247.13C145.831 250.463 150.331 251.963 151.998 251.63C153.665 251.297 155.165 250.297 156.498 248.63C157.831 246.963 158.498 233.63 158.498 208.63C158.498 183.63 159.831 169.297 162.498 165.63C165.165 161.963 168.331 159.463 171.998 158.13C175.665 156.797 180.331 156.297 185.998 156.63C191.665 156.963 197.331 158.297 202.998 160.63C208.665 162.963 212.831 165.463 215.498 168.13C218.165 170.797 220.665 172.13 222.998 172.13C225.331 172.13 231.331 169.963 240.998 165.63C250.665 161.297 256.665 157.297 258.998 153.63C261.331 149.963 262.165 146.463 261.498 143.13C260.831 139.797 259.498 137.297 257.498 135.63C255.498 133.963 245.665 128.963 227.998 120.63C210.331 112.297 198.331 107.797 191.998 107.13C185.665 106.463 173.498 110.13 155.498 118.13Z" fill="#646464" fill-rule="nonzero" opacity="1" stroke="none" vectornator:layerName="Curve 4"/>
<path d="M182.549 169.918C179.215 171.252 176.549 173.418 174.549 176.418C172.549 179.418 171.382 192.585 171.049 215.918C170.715 239.252 170.882 252.418 171.549 255.418C172.215 258.418 173.549 261.252 175.549 263.918C177.549 266.585 180.882 269.252 185.549 271.918C190.215 274.585 194.215 276.252 197.549 276.918C200.882 277.585 203.715 277.252 206.049 275.918C208.382 274.585 210.049 272.418 211.049 269.418C212.049 266.418 212.549 251.752 212.549 225.418C212.549 199.085 212.382 184.918 212.049 182.918C211.715 180.918 210.549 178.585 208.549 175.918C206.549 173.252 203.882 171.252 200.549 169.918C197.215 168.585 194.215 167.918 191.549 167.918C188.882 167.918 185.882 168.585 182.549 169.918ZM236.049 244.418C232.382 246.085 229.715 248.252 228.049 250.918C226.382 253.585 225.549 258.418 225.549 265.418C225.549 272.418 227.049 277.918 230.049 281.918C233.049 285.918 243.215 291.585 260.549 298.918C277.882 306.252 291.382 308.252 301.049 304.918C310.715 301.585 317.382 298.585 321.049 295.918C324.715 293.252 326.882 290.252 327.549 286.918C328.215 283.585 328.215 281.085 327.549 279.418C326.882 277.752 325.382 275.918 323.049 273.918C320.715 271.918 308.549 266.418 286.549 257.418C264.549 248.418 251.549 243.585 247.549 242.918C243.549 242.252 239.715 242.752 236.049 244.418ZM126.049 262.918C123.049 264.918 120.882 267.418 119.549 270.418C118.215 273.418 117.549 289.085 117.549 317.418C117.549 345.752 119.049 362.418 122.049 367.418C125.049 372.418 130.215 376.752 137.549 380.418C144.882 384.085 149.882 386.085 152.549 386.418C155.215 386.752 156.882 386.418 157.549 385.418C158.215 384.418 158.549 366.585 158.549 331.918C158.549 297.252 157.882 278.252 156.549 274.918C155.215 271.585 153.549 268.918 151.549 266.918C149.549 264.918 147.049 263.252 144.049 261.918C141.049 260.585 138.049 259.918 135.049 259.918C132.049 259.918 129.049 260.918 126.049 262.918ZM181.549 289.418C178.882 290.418 176.549 292.418 174.549 295.418C172.549 298.418 171.549 314.585 171.549 343.918C171.549 373.252 172.049 389.085 173.049 391.418C174.049 393.752 175.715 396.085 178.049 398.418C180.382 400.752 185.549 403.752 193.549 407.418C201.549 411.085 203.906 411.55 206.282 412.238C207.878 412.701 209.875 413.325 210.68 413.069C211.485 412.814 211.567 410.984 211.567 410.984L212.049 360.418C212.382 325.418 210.882 305.418 207.549 300.418C204.215 295.418 201.215 292.252 198.549 290.918C195.882 289.585 193.049 288.752 190.049 288.418C187.049 288.085 184.215 288.418 181.549 289.418Z" fill="#4584b6" fill-rule="nonzero" opacity="1" stroke="none" vectornator:layerName="Curve 3"/>
<path d="M343.529 117.496C328.196 125.162 316.359 127.848 312.029 127.996C307.699 128.143 300.529 127.829 294.529 129.496C288.529 131.162 284.196 133.162 281.529 135.496C278.863 137.829 276.863 140.662 275.529 143.996C274.196 147.329 273.529 150.162 273.529 152.496C273.529 154.829 274.029 157.329 275.029 159.996C276.029 162.662 280.029 167.496 280.029 167.496C282.363 169.829 286.166 173.193 293.833 175.86C301.5 178.526 310.029 178.662 317.029 177.996C324.029 177.329 329.363 176.162 333.029 174.496C336.696 172.829 340.196 170.662 343.529 167.996C346.863 165.329 351.863 162.662 358.529 159.996C365.196 157.329 371.363 155.996 377.029 155.996C382.696 155.996 386.863 156.496 389.529 157.496C392.196 158.496 394.696 160.329 397.029 162.996C399.363 165.662 400.863 167.996 401.529 169.996C402.196 171.996 402.529 185.162 402.529 209.496C402.529 233.829 403.196 246.829 404.529 248.496C405.863 250.162 407.363 251.162 409.029 251.496C410.696 251.829 415.029 250.329 422.029 246.996C429.029 243.662 433.363 241.162 435.029 239.496C436.696 237.829 438.363 235.162 440.029 231.496C441.696 227.829 442.363 212.162 442.029 184.496C441.696 156.829 440.863 141.496 439.529 138.496C438.196 135.496 435.029 132.329 430.029 128.996C425.029 125.662 415.529 120.996 401.529 114.996C387.529 108.996 378.196 105.996 373.529 105.996C368.863 105.996 358.863 109.829 343.529 117.496ZM295.672 145.117C300.545 137.433 316.906 137.684 319.838 147.308C322.77 156.932 315.95 163.157 306.739 162.631C297.529 162.106 290.798 152.801 295.672 145.117ZM361.029 168.996C356.696 170.329 353.363 172.996 351.029 176.996C348.696 180.996 347.529 195.996 347.529 221.996C347.529 247.996 347.863 262.662 348.529 265.996C349.196 269.329 350.529 271.829 352.529 273.496C354.529 275.162 357.029 275.996 360.029 275.996C363.029 275.996 366.363 275.162 370.029 273.496C373.696 271.829 376.863 269.829 379.529 267.496C382.196 265.162 384.363 262.162 386.029 258.496C387.696 254.829 388.529 241.162 388.529 217.496C388.529 193.829 387.529 180.162 385.529 176.496C383.529 172.829 380.029 170.329 375.029 168.996C370.029 167.662 365.363 167.662 361.029 168.996ZM238.529 176.996C235.196 178.329 232.363 180.496 230.029 183.496C227.696 186.496 226.363 190.662 226.029 195.996C225.696 201.329 225.863 205.329 226.529 207.996C227.196 210.662 228.363 212.996 230.029 214.996C231.696 216.996 248.863 224.662 281.529 237.996C295.633 243.752 308.151 249.829 316.352 253.038C327.146 257.262 328.992 258.907 332.029 257.496C334.635 256.286 333.696 251.162 334.029 239.496C334.363 227.829 334.196 220.662 333.529 217.996C332.863 215.329 331.529 212.662 329.529 209.996C327.529 207.329 313.696 200.829 288.029 190.496C262.363 180.162 248.529 174.996 246.529 174.996C244.529 174.996 241.863 175.662 238.529 176.996Z" fill="#fdde57" fill-rule="nonzero" opacity="1" stroke="none" vectornator:layerName="Curve 2"/>
</g>
<g fill="#3a73ad" opacity="1" stroke="none" vectornator:layerName="Text 1">
<path d="M586.469 189.336L604.652 189.336L645.844 305.711L621.871 305.711L609.773 269.344L575.336 269.344L563.758 305.711L544.461 305.711L586.469 189.336ZM579.566 254.426L606.062 254.426L593.148 212.419L579.566 254.426Z"/>
<path d="M725.629 204.477L680.133 204.477L680.133 236.317L716.351 236.317L716.351 251.309L680.133 251.309L680.133 290.645L727.559 290.645L727.559 305.711L659.723 305.711L659.723 189.411L725.629 189.411L725.629 204.477Z"/>
<path d="M755.91 276.84C758.532 279.562 760.87 281.863 762.924 283.743C764.977 285.623 767.031 287.144 769.084 288.307C771.137 289.47 773.339 290.311 775.689 290.831C778.04 291.35 780.848 291.61 784.113 291.61C786.637 291.61 789.098 291.35 791.498 290.831C793.898 290.311 796.038 289.433 797.918 288.196C799.798 286.959 801.307 285.301 802.445 283.223C803.583 281.145 804.152 278.547 804.152 275.43C804.152 273.303 803.732 271.422 802.891 269.79C802.049 268.157 800.788 266.648 799.105 265.262C797.423 263.877 795.32 262.541 792.797 261.254C790.273 259.968 787.354 258.607 784.039 257.172C782.901 256.678 781.862 256.232 780.922 255.836C779.982 255.441 779.091 255.045 778.25 254.649C777.409 254.253 776.568 253.87 775.726 253.499C774.885 253.127 773.995 252.719 773.055 252.274C771.125 251.383 769.047 250.431 766.82 249.417C764.594 248.402 762.379 247.215 760.178 245.854C757.976 244.493 755.848 242.922 753.795 241.141C751.741 239.36 749.935 237.282 748.377 234.907C746.818 232.532 745.569 229.81 744.629 226.743C743.689 223.675 743.219 220.187 743.219 216.278C743.219 211.182 744.332 206.753 746.559 202.993C748.785 199.232 751.741 196.127 755.428 193.678C759.114 191.229 763.332 189.398 768.082 188.186C772.832 186.974 777.706 186.368 782.703 186.368C786.463 186.368 790.001 186.627 793.316 187.147C796.631 187.667 799.786 188.495 802.779 189.633C805.773 190.771 808.655 192.231 811.426 194.012C814.197 195.794 816.967 197.921 819.738 200.395L808.383 215.461C806.404 213.433 804.523 211.602 802.742 209.969C800.961 208.336 799.118 206.951 797.213 205.813C795.308 204.675 793.23 203.809 790.978 203.215C788.727 202.622 786.167 202.325 783.297 202.325C781.12 202.325 778.906 202.547 776.654 202.993C774.403 203.438 772.362 204.168 770.531 205.182C768.7 206.197 767.204 207.508 766.041 209.116C764.878 210.724 764.297 212.691 764.297 215.016C764.297 217.787 765.064 220.273 766.598 222.475C768.131 224.677 769.987 226.619 772.164 228.301C774.341 229.984 776.629 231.419 779.029 232.606C781.429 233.794 783.495 234.758 785.226 235.501C786.76 236.193 788.059 236.775 789.123 237.245C790.187 237.715 791.238 238.172 792.277 238.618C793.316 239.063 794.442 239.533 795.654 240.028C796.866 240.523 798.388 241.166 800.219 241.958C801.654 242.551 803.262 243.281 805.043 244.147C806.824 245.013 808.642 246.052 810.498 247.264C812.353 248.476 814.172 249.911 815.953 251.569C817.734 253.226 819.318 255.169 820.703 257.395C822.088 259.622 823.202 262.17 824.043 265.04C824.884 267.909 825.305 271.175 825.305 274.836C825.305 278.547 824.748 281.937 823.635 285.004C822.521 288.072 820.988 290.818 819.033 293.243C817.079 295.667 814.766 297.782 812.094 299.588C809.422 301.394 806.552 302.879 803.484 304.042C800.417 305.204 797.213 306.083 793.873 306.676C790.533 307.27 787.181 307.567 783.816 307.567C779.215 307.567 774.96 307.196 771.051 306.454C767.142 305.711 763.456 304.611 759.992 303.151C756.529 301.691 753.251 299.885 750.158 297.733C747.066 295.581 744.085 293.094 741.215 290.274L755.91 276.84Z"/>
<path d="M887.871 239.434L884.531 257.098L839.851 257.098L843.266 239.434L887.871 239.434Z"/>
<path d="M921.863 260.735L921.863 305.711L901.453 305.711L901.453 189.411L934.48 189.411C941.853 189.411 948.248 190.277 953.666 192.008C959.084 193.74 963.574 196.127 967.137 199.17C970.699 202.213 973.346 205.838 975.078 210.044C976.81 214.249 977.676 218.826 977.676 223.774C977.676 225.704 977.428 227.955 976.934 230.528C976.439 233.101 975.573 235.76 974.336 238.506C973.099 241.252 971.392 243.949 969.215 246.596C967.038 249.243 964.254 251.618 960.865 253.721C957.476 255.824 953.419 257.519 948.693 258.805C943.968 260.092 938.414 260.735 932.031 260.735L921.863 260.735ZM921.863 245.817L932.18 245.743C935.94 245.743 939.379 245.273 942.496 244.333C945.613 243.392 948.285 242.007 950.512 240.176C952.738 238.346 954.458 236.094 955.67 233.422C956.882 230.751 957.488 227.708 957.488 224.294C957.488 221.572 957.068 219.012 956.226 216.612C955.385 214.212 954 212.109 952.07 210.303C950.141 208.497 947.605 207.062 944.463 205.999C941.321 204.935 937.424 204.403 932.773 204.403L921.863 204.403L921.863 245.817Z"/>
<path d="M1025.7 284.856L1042.32 225.555L1063.4 225.555L1031.78 311.797C1029.8 316.3 1027.9 320.308 1026.07 323.821C1024.24 327.334 1022.13 330.29 1019.76 332.69C1017.38 335.09 1014.6 336.92 1011.41 338.182C1008.22 339.444 1004.27 340.075 999.57 340.075C995.81 340.075 992.284 339.53 988.994 338.442C985.704 337.353 982.797 336.017 980.273 334.434L983.91 322.708C984.652 323.004 985.605 323.326 986.767 323.672C987.93 324.019 989.18 324.316 990.516 324.563C991.851 324.81 993.237 325.021 994.672 325.194C996.107 325.367 997.467 325.454 998.754 325.454C1000.68 325.454 1002.4 325.045 1003.91 324.229C1005.42 323.413 1006.81 322.225 1008.07 320.667C1009.33 319.108 1010.51 317.166 1011.59 314.84C1012.68 312.515 1013.77 309.868 1014.86 306.899C1015.21 306.107 1015.54 305.118 1015.86 303.93C1016.18 302.743 1016.42 301.58 1016.57 300.442L986.062 225.555L1007.14 225.555L1025.7 284.856Z"/>
<path d="M1068.96 229.563L1080.77 225.555L1085.81 204.848L1100.06 204.848L1100.06 225.555L1119.73 225.555L1117.95 239.36L1100.06 239.36L1100.06 280.254C1100.06 282.53 1100.22 284.435 1100.54 285.969C1100.87 287.503 1101.32 288.74 1101.92 289.68C1102.51 290.62 1103.25 291.288 1104.14 291.684C1105.04 292.08 1106.05 292.278 1107.19 292.278C1108.77 292.278 1110.56 292.092 1112.57 291.721C1114.57 291.35 1116.81 290.695 1119.29 289.754L1123.74 299.18C1120.18 301.902 1116.68 303.93 1113.24 305.266C1109.8 306.602 1106.45 307.27 1103.18 307.27C1098.73 307.27 1095.07 306.689 1092.2 305.526C1089.33 304.363 1087.04 302.706 1085.33 300.553C1083.62 298.401 1082.44 295.791 1081.77 292.723C1081.1 289.655 1080.77 286.217 1080.77 282.407L1080.77 239.36L1068.96 239.36L1068.96 229.563Z"/>
<path d="M1135.98 189.411L1155.28 189.411L1155.28 231.641C1156.37 230.751 1157.59 229.86 1158.95 228.969C1160.32 228.079 1161.85 227.287 1163.56 226.594C1165.26 225.902 1167.14 225.345 1169.2 224.924C1171.25 224.504 1173.46 224.294 1175.84 224.294C1180.64 224.294 1184.98 224.937 1188.87 226.223C1192.75 227.51 1196.05 229.39 1198.77 231.864C1201.49 234.338 1203.59 237.393 1205.04 241.03C1206.5 244.667 1207.23 248.786 1207.23 253.387L1207.23 305.711L1187.94 305.711L1187.94 253.684C1187.94 248.489 1186.63 244.691 1184 242.292C1181.38 239.892 1177.74 238.692 1173.09 238.692C1171.61 238.692 1170.16 238.779 1168.75 238.952C1167.34 239.125 1165.92 239.397 1164.48 239.768C1163.05 240.139 1161.58 240.585 1160.07 241.104C1158.56 241.624 1156.96 242.23 1155.28 242.922L1155.28 305.711L1135.98 305.711L1135.98 189.411Z"/>
<path d="M1268.24 307.715C1261.71 307.715 1255.93 306.701 1250.91 304.672C1245.89 302.644 1241.67 299.762 1238.26 296.026C1234.84 292.29 1232.26 287.788 1230.5 282.518C1228.75 277.249 1227.87 271.373 1227.87 264.891C1227.87 259.399 1228.68 254.204 1230.32 249.305C1231.95 244.407 1234.42 240.102 1237.74 236.391C1241.05 232.68 1245.22 229.736 1250.24 227.559C1255.27 225.382 1261.17 224.294 1267.95 224.294C1274.72 224.294 1280.56 225.382 1285.46 227.559C1290.36 229.736 1294.39 232.717 1297.56 236.502C1300.73 240.288 1303.06 244.741 1304.57 249.862C1306.08 254.983 1306.84 260.463 1306.84 266.301C1306.84 271.991 1305.96 277.348 1304.2 282.37C1302.44 287.392 1299.9 291.783 1296.56 295.544C1293.22 299.304 1289.16 302.273 1284.38 304.45C1279.61 306.627 1274.23 307.715 1268.24 307.715ZM1267.57 294.356C1270.84 294.356 1273.66 293.465 1276.04 291.684C1278.41 289.903 1280.36 287.553 1281.9 284.633C1283.43 281.714 1284.57 278.424 1285.31 274.762C1286.05 271.101 1286.43 267.365 1286.43 263.555C1286.43 260.042 1286.09 256.715 1285.42 253.573C1284.76 250.431 1283.65 247.685 1282.12 245.335C1280.59 242.984 1278.61 241.116 1276.18 239.731C1273.76 238.346 1270.82 237.653 1267.35 237.653C1264.23 237.653 1261.48 238.37 1259.08 239.805C1256.68 241.24 1254.68 243.207 1253.1 245.706C1251.52 248.204 1250.32 251.173 1249.5 254.612C1248.69 258.051 1248.28 261.774 1248.28 265.782C1248.28 269.047 1248.64 272.363 1249.35 275.727C1250.07 279.092 1251.21 282.159 1252.77 284.93C1254.33 287.701 1256.33 289.965 1258.78 291.721C1261.23 293.478 1264.16 294.356 1267.57 294.356Z"/>
<path d="M1328.51 239.286C1328.51 237.702 1328.47 235.661 1328.4 233.163C1328.32 230.664 1328.04 228.128 1327.54 225.555L1345.73 225.555C1345.87 225.902 1346.02 226.384 1346.17 227.002C1346.32 227.621 1346.48 228.289 1346.65 229.006C1346.83 229.724 1346.98 230.466 1347.1 231.233C1347.22 232 1347.33 232.705 1347.43 233.348C1348.62 232.26 1350.06 231.171 1351.74 230.083C1353.42 228.994 1355.26 228.017 1357.27 227.151C1359.27 226.285 1361.44 225.592 1363.76 225.073C1366.09 224.553 1368.51 224.294 1371.04 224.294C1375.19 224.294 1379.06 224.937 1382.65 226.223C1386.24 227.51 1389.35 229.365 1392 231.79C1394.65 234.214 1396.74 237.183 1398.27 240.696C1399.81 244.209 1400.57 248.192 1400.57 252.645L1400.57 305.711L1381.28 305.711L1381.28 256.282C1381.28 253.066 1380.96 250.344 1380.31 248.118C1379.67 245.891 1378.72 244.098 1377.45 242.737C1376.19 241.376 1374.65 240.387 1372.82 239.768C1370.99 239.15 1368.88 238.84 1366.51 238.84C1365.12 238.84 1363.64 238.952 1362.05 239.174C1360.47 239.397 1358.85 239.731 1357.19 240.176C1355.54 240.622 1353.9 241.141 1352.29 241.735C1350.69 242.329 1349.19 242.997 1347.8 243.739L1347.8 305.711L1328.51 305.711L1328.51 239.286Z"/>
</g>
</g>
</svg>
